<!DOCTYPE svg PUBLIC "-//W3C//DTD SVG 1.1//EN" "http://www.w3.org/Graphics/SVG/1.1/DTD/svg11.dtd">

<!-- Uploaded to: SVG Repo, www.svgrepo.com, Transformed by: SVG Repo Mixer Tools -->
<svg width="17" height="17" viewBox="0 0 17 17" fill="none" xmlns="http://www.w3.org/2000/svg">
  <path d="M15.9782 13.3087C15.9782 13.5727 15.9195 13.844 15.7948 14.108C15.6702 14.372 15.5088 14.6214 15.2962 14.856C14.9368 15.252 14.5408 15.538 14.0935 15.7214C13.6535 15.9047 13.1768 16 12.6635 16C11.9155 16 11.1162 15.824 10.2728 15.4647C9.4295 15.1054 8.58616 14.6214 7.75016 14.0127C6.90683 13.3967 6.1075 12.7147 5.34483 11.9594C4.5895 11.1967 3.9075 10.3974 3.29883 9.56137C2.6975 8.72537 2.2135 7.88937 1.8615 7.06071C1.5095 6.22471 1.3335 5.42537 1.3335 4.66271C1.3335 4.16404 1.4215 3.68737 1.5975 3.24737C1.7735 2.80004 2.05216 2.38937 2.44083 2.02271C2.91016 1.56071 3.4235 1.33337 3.96616 1.33337C4.1715 1.33337 4.37683 1.37737 4.56016 1.46537C4.75083 1.55337 4.9195 1.68537 5.0515 1.87604L6.75283 4.27404C6.88483 4.45737 6.98016 4.62604 7.04616 4.78737C7.11216 4.94137 7.14883 5.09537 7.14883 5.23471C7.14883 5.41071 7.0975 5.58671 6.99483 5.75537C6.8995 5.92404 6.76016 6.10004 6.58416 6.27604L6.02683 6.85537C5.94616 6.93604 5.9095 7.03137 5.9095 7.14871C5.9095 7.20737 5.91683 7.25871 5.9315 7.31737C5.9535 7.37604 5.9755 7.42004 5.99016 7.46404C6.12216 7.70604 6.3495 8.02137 6.67216 8.40271C7.00216 8.78404 7.35416 9.17271 7.7355 9.56137C8.1315 9.95004 8.51283 10.3094 8.9015 10.6394C9.28283 10.962 9.59816 11.182 9.8475 11.314C9.88416 11.3287 9.92816 11.3507 9.9795 11.3727C10.0382 11.3947 10.0968 11.402 10.1628 11.402C10.2875 11.402 10.3828 11.358 10.4635 11.2774L11.0208 10.7274C11.2042 10.544 11.3802 10.4047 11.5488 10.3167C11.7175 10.214 11.8862 10.1627 12.0695 10.1627C12.2088 10.1627 12.3555 10.192 12.5168 10.258C12.6782 10.324 12.8468 10.4194 13.0302 10.544L15.4575 12.2674C15.6482 12.3994 15.7802 12.5534 15.8608 12.7367C15.9342 12.92 15.9782 13.1034 15.9782 13.3087Z" stroke="#FFFFFF" stroke-miterlimit="10"></path>
</svg>