<svg width="21" height="20" viewBox="0 0 21 20" fill="none" xmlns="http://www.w3.org/2000/svg">
  <path d="M13.7082 2.96663V3.42247L14.1621 3.4645C15.1939 3.56003 15.9057 3.90838 16.3797 4.41155C16.8394 4.89957 17.1204 5.58118 17.209 6.44996H3.29073C3.3793 5.58118 3.66036 4.89957 4.12007 4.41155C4.59404 3.90838 5.30585 3.56003 6.33763 3.4645L6.79153 3.42247V2.96663V1.66663C6.79153 1.63648 6.80382 1.6052 6.82946 1.57955C6.8551 1.55391 6.88638 1.54163 6.91653 1.54163C6.94668 1.54163 6.97796 1.55391 7.0036 1.57955C7.02925 1.6052 7.04153 1.63648 7.04153 1.66663V2.91663V3.41663H7.54153H12.9582H13.4582V2.91663V1.66663C13.4582 1.63648 13.4705 1.6052 13.4961 1.57955C13.5218 1.55391 13.5531 1.54163 13.5832 1.54163C13.6133 1.54163 13.6446 1.55391 13.6703 1.57955C13.6959 1.6052 13.7082 1.63648 13.7082 1.66663V2.96663Z" fill="#191A23" stroke="#191A23"></path>
  <path d="M8.23735 15.5654L8.26427 15.5438L8.28798 15.5188C8.51998 15.2739 8.66667 14.9363 8.66667 14.5833C8.66667 14.2302 8.51998 13.8926 8.28798 13.6477L8.26427 13.6227L8.23735 13.6012L8.17485 13.5512L8.11235 13.5012L8.0954 13.4876L8.07735 13.4756C8.00506 13.4274 7.92666 13.3858 7.84216 13.3543C7.7635 13.318 7.67948 13.2905 7.59067 13.2749C7.33471 13.2251 7.06952 13.249 6.82542 13.3545C6.65002 13.4239 6.51875 13.5196 6.40718 13.62L6.39238 13.6333L6.37869 13.6477C6.14668 13.8926 6 14.2302 6 14.5833C6 14.9363 6.14668 15.2739 6.37869 15.5188L6.39238 15.5333L6.40718 15.5466C6.51986 15.648 6.65263 15.7445 6.83066 15.8141C6.98032 15.8756 7.1517 15.9166 7.33333 15.9166C7.42424 15.9166 7.50655 15.9044 7.55442 15.8973C7.56041 15.8964 7.56585 15.8956 7.57071 15.8949L7.57073 15.8951L7.5822 15.8931C7.67414 15.8778 7.76101 15.8497 7.84216 15.8123C7.92342 15.782 7.99905 15.7423 8.06902 15.6965C8.12155 15.6636 8.1637 15.6283 8.18633 15.609C8.19514 15.6015 8.20578 15.5923 8.21341 15.5857C8.21619 15.5833 8.21856 15.5813 8.22032 15.5797C8.22946 15.5719 8.23429 15.5678 8.23735 15.5654ZM8.26887 12.6213L8.27868 12.612L8.28798 12.6022C8.51998 12.3573 8.66667 12.0197 8.66667 11.6666C8.66667 11.3136 8.51998 10.976 8.28798 10.7311L8.28811 10.731L8.27855 10.7214C8.152 10.5948 8.00262 10.5012 7.8389 10.4369C7.34081 10.2263 6.76119 10.3483 6.38811 10.7214L6.38798 10.7213L6.37869 10.7311C6.14668 10.976 6 11.3136 6 11.6666C6 12.0197 6.14668 12.3573 6.37869 12.6022L6.38798 12.612L6.39779 12.6213C6.64269 12.8533 6.9803 13 7.33333 13C7.68637 13 8.02398 12.8533 8.26887 12.6213ZM11.1855 15.5379L11.1953 15.5286L11.2046 15.5188C11.4366 15.2739 11.5833 14.9363 11.5833 14.5833C11.5833 14.2302 11.4366 13.8926 11.2046 13.6477L11.2048 13.6476L11.1952 13.6381C10.9329 13.3758 10.5796 13.2604 10.25 13.2604C9.92041 13.2604 9.56706 13.3758 9.30478 13.6381L9.30465 13.6379L9.29536 13.6477C9.06335 13.8926 8.91667 14.2302 8.91667 14.5833C8.91667 14.9363 9.06335 15.2739 9.29536 15.5188L9.30465 15.5286L9.31446 15.5379C9.55936 15.7699 9.89696 15.9166 10.25 15.9166C10.603 15.9166 10.9406 15.7699 11.1855 15.5379ZM11.154 12.6487L11.1809 12.6272L11.2046 12.6022C11.4366 12.3573 11.5833 12.0197 11.5833 11.6666C11.5833 11.3136 11.4366 10.976 11.2046 10.7311L11.2048 10.731L11.1952 10.7214C10.8221 10.3483 10.2425 10.2263 9.74443 10.4369C9.58071 10.5012 9.43133 10.5948 9.30478 10.7214L9.30465 10.7213L9.29536 10.7311C9.06335 10.976 8.91667 11.3136 8.91667 11.6666C8.91667 12.0197 9.06335 12.3573 9.29536 12.6022L9.30465 12.612L9.31446 12.6213C9.55936 12.8533 9.89696 13 10.25 13C10.3409 13 10.4232 12.9877 10.4711 12.9806C10.4771 12.9798 10.4825 12.979 10.4874 12.9783L10.4874 12.9784L10.4989 12.9765C10.5908 12.9612 10.6777 12.9331 10.7588 12.8956C10.8433 12.8641 10.9217 12.8225 10.994 12.7743L11.0121 12.7623L11.029 12.7487L11.154 12.6487ZM14.1022 15.5379L14.112 15.5286L14.1213 15.5188C14.3533 15.2739 14.5 14.9363 14.5 14.5833C14.5 14.2302 14.3533 13.8926 14.1213 13.6477L14.1214 13.6476L14.1119 13.6381C13.8496 13.3758 13.4963 13.2604 13.1667 13.2604C12.8371 13.2604 12.4837 13.3758 12.2214 13.6381L12.2213 13.6379L12.212 13.6477C11.98 13.8926 11.8333 14.2302 11.8333 14.5833C11.8333 14.9363 11.98 15.2739 12.212 15.5188L12.2213 15.5286L12.2311 15.5379C12.476 15.7699 12.8136 15.9166 13.1667 15.9166C13.5197 15.9166 13.8573 15.7699 14.1022 15.5379ZM14.0707 12.6487L14.0976 12.6272L14.1213 12.6022C14.3533 12.3573 14.5 12.0197 14.5 11.6666C14.5 11.3136 14.3533 10.976 14.1213 10.7311L14.0976 10.7061L14.0707 10.6845L14.0082 10.6345L13.9457 10.5845L13.9287 10.571L13.9107 10.5589C13.8384 10.5107 13.76 10.4691 13.6755 10.4376C13.5968 10.4013 13.5128 10.3738 13.424 10.3582C13.1681 10.3085 12.9029 10.3323 12.6589 10.4378C12.4834 10.5072 12.3521 10.6029 12.2405 10.7033L12.2257 10.7166L12.212 10.7311C11.98 10.976 11.8333 11.3136 11.8333 11.6666C11.8333 12.0197 11.98 12.3573 12.212 12.6022L12.2213 12.612L12.2311 12.6213C12.476 12.8533 12.8136 13 13.1667 13C13.2535 13 13.3436 12.987 13.3943 12.9797C13.3977 12.9792 13.401 12.9787 13.404 12.9783L13.4041 12.9784L13.4155 12.9765C13.5075 12.9612 13.5943 12.9331 13.6755 12.8956C13.76 12.8641 13.8384 12.8225 13.9107 12.7743L13.9287 12.7623L13.9457 12.7487L14.0082 12.6987L14.0707 12.6487ZM3.58333 8.69995H16.9167C17.0989 8.69995 17.25 8.85109 17.25 9.03328V14.1666C17.25 15.34 16.9566 16.2414 16.394 16.8472C15.8377 17.4464 14.9464 17.8333 13.5833 17.8333H6.91667C5.55363 17.8333 4.66232 17.4464 4.10598 16.8472C3.54341 16.2414 3.25 15.34 3.25 14.1666V9.03328C3.25 8.85109 3.40114 8.69995 3.58333 8.69995Z" fill="currentColor" stroke="currentColor"></path>
</svg>