<svg width="21" height="20" viewBox="0 0 21 20" fill="none" xmlns="http://www.w3.org/2000/svg">
  <path d="M14.4165 1.66663H6.08317C3.78317 1.66663 1.9165 3.52496 1.9165 5.81663V10.8V11.6333C1.9165 13.925 3.78317 15.7833 6.08317 15.7833H7.33317C7.55817 15.7833 7.85817 15.9333 7.99984 16.1166L9.24984 17.775C9.79984 18.5083 10.6998 18.5083 11.2498 17.775L12.4998 16.1166C12.6582 15.9083 12.9082 15.7833 13.1665 15.7833H14.4165C16.7165 15.7833 18.5832 13.925 18.5832 11.6333V5.81663C18.5832 3.52496 16.7165 1.66663 14.4165 1.66663ZM11.0832 11.4583H6.08317C5.7415 11.4583 5.45817 11.175 5.45817 10.8333C5.45817 10.4916 5.7415 10.2083 6.08317 10.2083H11.0832C11.4248 10.2083 11.7082 10.4916 11.7082 10.8333C11.7082 11.175 11.4248 11.4583 11.0832 11.4583ZM14.4165 7.29163H6.08317C5.7415 7.29163 5.45817 7.00829 5.45817 6.66663C5.45817 6.32496 5.7415 6.04163 6.08317 6.04163H14.4165C14.7582 6.04163 15.0415 6.32496 15.0415 6.66663C15.0415 7.00829 14.7582 7.29163 14.4165 7.29163Z" fill="currentColor"></path>
</svg>