<svg width="24" height="24" viewBox="0 0 24 24" fill="none" xmlns="http://www.w3.org/2000/svg">
  <path d="M17.49 9.60001L5.6 16.77C4.9 17.19 4 16.69 4 15.87V7.87001C4 4.38001 7.77 2.20001 10.8 3.94001L15.39 6.58001L17.48 7.78001C18.17 8.19001 18.18 9.19001 17.49 9.60001Z" fill="currentColor"></path>
  <path d="M17.8408 15.0264L17.8397 15.0271L13.79 17.3669L13.7897 17.3671L9.75142 19.6961C9.75119 19.6962 9.75095 19.6963 9.75072 19.6965C8.47748 20.4249 7.0468 20.2747 6.00815 19.5415L6.00817 19.5415L6.00368 19.5384C5.75615 19.3677 5.7445 18.925 6.07394 18.7306L6.07394 18.7306L6.07691 18.7288L18.7869 11.1089L18.7871 11.1088C19.1047 10.9181 19.4857 11.1127 19.536 11.4287L19.5362 11.4296C19.7564 12.7947 19.1932 14.2499 17.8408 15.0264Z" fill="currentColor" stroke="currentColor"></path>
</svg>